<?xml version="1.0" encoding="UTF-8"?>
<svg width="77px" height="75px" viewBox="0 0 77 75" version="1.1" xmlns="http://www.w3.org/2000/svg" xmlns:xlink="http://www.w3.org/1999/xlink">
    <!-- Generator: Sketch 41.2 (35397) - http://www.bohemiancoding.com/sketch -->
    <title>aftereffects</title>
    <desc>Created with Sketch.</desc>
    <defs></defs>
    <g id="Bootstrap-4-Grid-System" stroke="none" stroke-width="1" fill="none" fill-rule="evenodd">
        <g id="Sobre-mim" transform="translate(-489.000000, -1156.000000)">
            <g id="aftereffects" transform="translate(489.000000, 1156.000000)">
                <polygon id="Fill-4" fill="#05FFB0" points="73.7626909 71.1878909 73.7626909 25.8534491 3.86800909 23.5112004 3.86800909 71.1878909"></polygon>
                <path d="M3.86868182,71.1878909 L73.7616818,71.1878909 L73.7616818,3.26603935 L3.86868182,3.26603935 L3.86868182,71.1878909 Z M0.691727273,74.3618563 L76.9386364,74.3618563 L76.9386364,0.0903937059 L0.691727273,0.0903937059 L0.691727273,74.3618563 Z M54.6360455,35.8945381 C56.2573182,35.8945381 56.8291364,35.8945381 56.9872273,35.8306892 C56.9872273,35.608898 57.0511364,35.4492756 57.0511364,35.2913335 C57.0511364,33.577493 56.2253636,30.4035276 52.9205909,30.4035276 C49.8714545,30.4035276 48.5697273,33.0683815 48.2518636,35.8945381 L54.6360455,35.8945381 Z M48.1879545,40.2429883 C48.2518636,44.5275896 50.2851818,47.4159149 55.1136818,47.4159149 C56.9872273,47.4159149 58.6085,47.1621993 60.292,46.4312968 C60.514,46.3372036 60.6737727,46.369128 60.6737727,46.6530879 L60.6737727,50.6218048 C60.6737727,50.9393694 60.5779091,51.0973115 60.3559091,51.2552537 C58.6724091,52.0819297 56.5751818,52.461663 53.9700455,52.461663 C45.5828182,52.461663 42.4378182,46.2733546 42.4378182,39.3860681 C42.4378182,31.8955769 46.3127273,25.7694373 53.1442727,25.7694373 C60.07,25.7694373 62.4834091,31.5780124 62.4834091,36.3061959 C62.4834091,37.8301698 62.3892273,39.0685035 62.2294545,39.6717082 C62.1672273,39.9254238 62.0696818,40.0211972 61.8174091,40.0833659 C61.1816818,40.1791394 59.3064545,40.3068373 56.5112727,40.3068373 L48.1879545,40.3068373 L48.1879545,40.2429883 Z M31.1595455,37.005174 C30.2698636,33.4817195 28.1087273,25.8013617 27.3132273,22.0880407 L27.251,22.0880407 C26.585,25.8013617 24.8375909,32.0854436 23.5341818,37.005174 L31.1595455,37.005174 Z M22.2324545,42.1466955 L19.7215,51.6366672 C19.6592727,51.8903828 19.5634091,51.9861563 19.2455455,51.9861563 L14.5751364,51.9861563 C14.2572727,51.9861563 14.1950455,51.8903828 14.2572727,51.5106495 L23.2802273,19.9927866 C23.44,19.4215065 23.5341818,18.976244 23.5980909,17.3901014 C23.5980909,17.1683103 23.6939545,17.0725368 23.8520455,17.0725368 L30.5238182,17.0725368 C30.7458182,17.0725368 30.8416818,17.1363858 30.9055909,17.3901014 L41.0082727,51.5728183 C41.0705,51.8265339 41.0082727,51.9861563 40.7543182,51.9861563 L35.5120909,51.9861563 C35.2581364,51.9861563 35.0983636,51.8903828 35.0344545,51.6685917 L32.4276364,42.1466955 L22.2324545,42.1466955 Z" id="Fill-10" fill="#332E3D"></path>
            </g>
        </g>
    </g>
</svg>