<?xml version="1.0" encoding="UTF-8"?>
<svg width="77px" height="75px" viewBox="0 0 77 75" version="1.1" xmlns="http://www.w3.org/2000/svg" xmlns:xlink="http://www.w3.org/1999/xlink">
    <!-- Generator: Sketch 41.2 (35397) - http://www.bohemiancoding.com/sketch -->
    <title>css3</title>
    <desc>Created with Sketch.</desc>
    <defs></defs>
    <g id="Bootstrap-4-Grid-System" stroke="none" stroke-width="1" fill="none" fill-rule="evenodd">
        <g id="Sobre-mim" transform="translate(-376.000000, -1290.000000)">
            <g id="css3" transform="translate(376.000000, 1290.000000)">
                <polygon id="Fill-24" fill="#05FFB0" points="73.2774879 71.436892 73.2774879 31.1397971 3.38280606 28.7975484 3.38280606 71.436892"></polygon>
                <path d="M3.38415152,71.6076039 L73.2788333,71.6076039 L73.2788333,3.68407219 L3.38415152,3.68407219 L3.38415152,71.6076039 Z M0.20719697,74.7815693 L76.4541061,74.7815693 L76.4541061,0.513467253 L0.20719697,0.513467253 L0.20719697,74.7815693 Z" id="Fill-39" fill="#332E3D"></path>
                <path d="M28.5828333,16.2156067 L28.5828333,13.8783988 L31.9952424,13.8783988 L31.9952424,11.3227601 L26.0247879,11.3227601 L26.0247879,18.5494543 L31.9952424,18.5494543 L31.9952424,16.2156067 L28.5828333,16.2156067 Z M38.132197,13.8783988 L40.5170152,13.8783988 L40.5170152,11.3227601 L34.5465606,11.3227601 L34.5465606,13.8783988 C35.3454242,14.678191 35.7625152,15.0612848 36.9179242,16.2139265 C36.2418333,16.2139265 34.5465606,16.2156067 34.5465606,16.2156067 L34.5465606,18.5494543 L40.5170152,18.5494543 L40.5170152,16.2156067 L38.132197,13.8783988 Z M46.5951061,13.8783988 L48.9799242,13.8783988 L48.9799242,11.3227601 L43.0094697,11.3227601 L43.0094697,13.8783988 C43.8083333,14.678191 44.2254242,15.0612848 45.3808333,16.2139265 C44.7047424,16.2139265 43.0094697,16.2156067 43.0094697,16.2156067 L43.0094697,18.5494543 L48.9816061,18.5494543 L48.9816061,16.2156067 L46.5951061,13.8783988 Z" id="Fill-40" fill="#332E3D"></path>
                <polygon id="Fill-41" fill="#FFFFFF" points="37.4878924 34.9771196 26.2398924 39.6582565 26.6132561 44.2906665 37.4878924 39.6448146 49.0571197 34.7049214 49.5364379 29.963296"></polygon>
                <polygon id="Fill-42" fill="#332E3D" points="49.5366061 29.9643041 37.4880606 34.9764475 37.4880606 39.6458227 49.0572879 34.7042493"></polygon>
                <polygon id="Fill-43" fill="#332E3D" points="37.4878924 29.9643041 49.5364379 29.9643041 49.0571197 34.7042493 37.4878924 34.7042493"></polygon>
                <polygon id="Fill-44" fill="#332E3D" points="37.4878924 39.6569123 37.4878924 44.3246073 43.3170742 44.3430899 42.9437106 50.5213169 37.4878924 52.0570524 37.4878924 57.2271379 37.5063924 57.2321786 47.3685742 54.355615 48.6484379 39.6569123"></polygon>
                <path d="M18.1585879,21.9831841 L21.7845879,61.2334921 L37.5011788,65.4626456 L53.2194515,61.2334921 L56.8437697,21.9831841 L18.1585879,21.9831841 Z M37.4877242,57.2328507 L27.5734061,54.3025195 L26.9343152,46.9010809 L31.838497,46.9010809 L32.1563606,50.7336987 L37.4339061,52.0678059 L37.4877242,52.0526838 L37.4877242,57.2328507 Z M37.4877242,44.3252794 L26.6114061,44.2899944 L26.2397242,39.6575844 L37.4877242,34.9764475 L37.4877242,39.6458227 L37.4608152,39.6575844 L37.4877242,39.6575844 L37.4877242,44.3252794 Z M37.4877242,34.7042493 L25.8142242,34.7042493 L25.2255879,29.9643041 L37.4877242,29.9643041 L37.4877242,34.7042493 Z M50.2544061,58.6795337 L37.536497,62.1004938 L37.5011788,62.0920926 L37.5011788,25.1621902 L53.1908606,25.1621902 L50.2544061,58.6795337 Z" id="Fill-45" fill="#332E3D"></path>
            </g>
        </g>
    </g>
</svg>