<?xml version="1.0" encoding="UTF-8"?>
<svg width="77px" height="75px" viewBox="0 0 77 75" version="1.1" xmlns="http://www.w3.org/2000/svg" xmlns:xlink="http://www.w3.org/1999/xlink">
    <!-- Generator: Sketch 41.2 (35397) - http://www.bohemiancoding.com/sketch -->
    <title>html5</title>
    <desc>Created with Sketch.</desc>
    <defs></defs>
    <g id="Bootstrap-4-Grid-System" stroke="none" stroke-width="1" fill="none" fill-rule="evenodd">
        <g id="Sobre-mim" transform="translate(-263.000000, -1290.000000)">
            <g id="html5" transform="translate(263.000000, 1290.000000)">
                <polygon id="Fill-23" fill="#05FFB0" points="73.5543167 71.436892 73.5543167 27.868378 3.66131667 25.5278095 3.66131667 71.436892"></polygon>
                <path d="M3.66148485,71.6076039 L73.5544848,71.6076039 L73.5544848,3.68407219 L3.66148485,3.68407219 L3.66148485,71.6076039 Z M0.484530303,74.7815693 L76.7331212,74.7815693 L76.7331212,0.513467253 L0.484530303,0.513467253 L0.484530303,74.7815693 Z" id="Fill-26" fill="#332E3D"></path>
                <path d="M20.9186212,21.9652056 L24.4100758,61.111339 L40.086303,65.458109 L55.8079394,61.1046181 L59.3027576,21.9652056 L20.9186212,21.9652056 Z M52.814303,58.6145086 L40.1098485,62.1312421 L40.1098485,57.1476628 L40.0879848,57.1543837 L30.2459848,54.4240006 L29.5732576,46.8864628 L34.3967121,46.8864628 L34.7381212,50.7157202 L40.0896667,52.1607229 L40.1098485,52.1523218 L40.1098485,44.4854059 L29.3579848,44.4854059 L28.1756667,31.2552293 L28.061303,29.9681687 L40.1098485,29.9681687 L40.1098485,25.1660548 L55.8012121,25.1660548 L52.814303,58.6145086 Z" id="Fill-31" fill="#332E3D"></path>
                <polygon id="Fill-32" fill="#332E3D" points="33.7522394 39.6848042 40.1111939 39.6848042 40.1111939 34.7684343 33.3132848 34.7684343"></polygon>
                <polygon id="Fill-33" fill="#332E3D" points="24.4891212 11.3274648 26.9311212 11.3274648 26.9311212 13.7386031 29.1645758 13.7386031 29.1645758 11.3274648 31.6065758 11.3274648 31.6065758 18.6264091 29.1645758 18.6264091 29.1645758 16.1833462 26.9311212 16.1833462 26.9311212 18.6264091 24.4891212 18.6264091"></polygon>
                <polygon id="Fill-34" fill="#332E3D" points="34.8181758 13.7476764 32.6704939 13.7476764 32.6704939 11.3281369 39.4112212 11.3281369 39.4112212 13.7476764 37.2601758 13.7476764 37.2601758 18.6270811 34.8181758 18.6270811"></polygon>
                <polygon id="Fill-35" fill="#332E3D" points="40.4828758 11.3274648 43.0291485 11.3274648 44.596603 13.8931848 46.1606939 11.3274648 48.7086485 11.3274648 48.7086485 18.6264091 46.2750576 18.6264091 46.2750576 15.0071812 44.596603 17.6048257 44.5545576 17.6048257 42.8727394 15.0071812 42.8727394 18.6264091 40.4828758 18.6264091"></polygon>
                <polygon id="Fill-36" fill="#332E3D" points="49.9234258 11.3274648 52.3654258 11.3274648 52.3654258 16.2135905 55.8013803 16.2135905 55.8013803 18.6264091 49.9234258 18.6264091"></polygon>
                <polygon id="Fill-37" fill="#332E3D" points="40.093703 44.4859099 46.0120212 44.4859099 45.4553394 50.7128638 40.093703 52.1561863 40.093703 57.1532075 49.9457939 54.4245046 50.0181121 53.6129507 51.1466121 40.9742171 51.2660212 39.6854763 40.093703 39.6854763"></polygon>
                <polygon id="Fill-38" fill="#332E3D" points="40.093703 34.7571767 40.093703 34.7689383 51.7016121 34.7689383 51.7974758 33.6885467 52.0177939 31.2555653 52.1321576 29.9668245 40.093703 29.9668245"></polygon>
            </g>
        </g>
    </g>
</svg>