<?xml version="1.0" encoding="UTF-8"?>
<svg width="55px" height="55px" viewBox="0 0 55 55" version="1.1" xmlns="http://www.w3.org/2000/svg" xmlns:xlink="http://www.w3.org/1999/xlink">
    <!-- Generator: Sketch 41.2 (35397) - http://www.bohemiancoding.com/sketch -->
    <title>icon-map</title>
    <desc>Created with Sketch.</desc>
    <defs>
        <polygon id="path-1" points="3.60672094e-20 0.0670182501 3.60672094e-20 44.3545677 54.5007419 44.3545677 54.5007419 0.0670182501 0 0.0670182501"></polygon>
    </defs>
    <g id="Bootstrap-4-Grid-System" stroke="none" stroke-width="1" fill="none" fill-rule="evenodd">
        <g id="Contactos" transform="translate(-721.000000, -548.000000)">
            <g id="icon-map" transform="translate(721.000000, 548.000000)">
                <g id="Group-3" transform="translate(0.000000, 10.152823)">
                    <mask id="mask-2" fill="white">
                        <use xlink:href="#path-1"></use>
                    </mask>
                    <g id="Clip-2"></g>
                    <path d="M40.4739677,10.1608065 C40.0747742,10.4091935 39.5496129,10.285 39.303,9.88758065 C39.0546129,9.4883871 39.1788065,8.96322581 39.5762258,8.7183871 L53.2002581,0.19516129 C53.5976774,-0.0532258065 54.1228387,0.0709677419 54.3712258,0.468387097 C54.4581613,0.608548387 54.4989677,0.762903226 54.4989677,0.917258065 L54.5007419,0.917258065 L54.5007419,33.2856452 C54.5007419,33.605 54.3250968,33.8835484 54.0625161,34.0290323 L38.7884839,44.211129 C38.5347742,44.3796774 38.2207419,44.393871 37.9634839,44.275 L37.9634839,44.2767742 L16.2562258,34.2579032 L1.3246129,44.211129 C0.934290323,44.4719355 0.403806452,44.3672581 0.143,43.9769355 C0.0312258065,43.8083871 -0.0131290323,43.615 0.00283870968,43.4287097 L0.013483871,11.3637097 C0.013483871,11.0532258 0.182032258,10.7817742 0.432193548,10.6345161 L0.430419355,10.6327419 L12.3388065,3.59629032 C12.7415484,3.35677419 13.2649355,3.48983871 13.5026774,3.89435484 C13.7421935,4.29709677 13.6055806,4.81870968 13.2046129,5.05822581 L1.7096129,11.8480645 L1.70074194,41.9135484 L15.7044516,32.5777419 L15.7062258,32.5795161 C15.9439677,32.4198387 16.2562258,32.386129 16.5347742,32.513871 L38.2438065,42.5327419 L52.7975161,32.8314516 L52.7975161,2.45370968 L40.4739677,10.1608065 Z" id="Fill-1" fill="#332F3E" mask="url(#mask-2)"></path>
                </g>
                <path d="M34.4791452,4.69575806 C32.6286613,2.84882258 30.0738226,1.70269355 27.2493065,1.70269355 C24.4265645,1.70269355 21.8717258,2.84882258 20.0212419,4.69753226 C18.1725323,6.54624194 17.0281774,9.10285484 17.0281774,11.9255968 C17.0281774,14.8902742 18.7704355,18.5522097 20.9810806,22.047371 C22.9912419,25.2302742 25.3917258,28.2659194 27.2475323,30.5439839 C29.1068871,28.2605968 31.5126935,25.2160806 33.5139839,22.0509194 C35.724629,18.5575323 37.4722097,14.8920484 37.4722097,11.9255968 C37.4722097,9.10285484 36.3260806,6.54624194 34.477371,4.69753226 L34.4791452,4.69575806 Z M27.2493065,0.00124193548 C30.5386613,0.00124193548 33.5210806,1.33543548 35.6785,3.49285484 L35.6802742,3.49462903 L35.6838226,3.49285484 C37.8394677,5.6485 39.1736613,8.63269355 39.1736613,11.9255968 C39.1736613,15.2628548 37.3107581,19.2264032 34.9510806,22.9575323 C32.6286613,26.6283387 29.8449516,30.0614032 27.9075323,32.4264032 C27.6094677,32.7901129 27.0718871,32.8433387 26.7099516,32.5452742 C26.6443065,32.4938226 26.5910806,32.4335 26.5449516,32.3678548 C24.6004355,29.9922097 21.8326935,26.5733387 19.5422097,22.9539839 C17.1860806,19.2228548 15.3231774,15.2593065 15.3231774,11.9255968 C15.3231774,8.63269355 16.6591452,5.6485 18.8165645,3.49285484 C20.9739839,1.33543548 23.954629,0.00124193548 27.2493065,0.00124193548 L27.2493065,0.00124193548 Z" id="Fill-4" fill="#332F3E"></path>
                <path d="M29.6607903,9.5141129 L29.6572419,9.5158871 C29.0415968,8.90024194 28.1899839,8.51701613 27.2496613,8.51701613 C26.3075645,8.51701613 25.4559516,8.90024194 24.8385323,9.5158871 L24.8367581,9.5141129 C24.2228871,10.1315323 23.8414355,10.9831452 23.8414355,11.9252419 C23.8414355,12.8673387 24.2246613,13.7207258 24.8385323,14.336371 C25.4559516,14.9502419 26.3075645,15.3334677 27.2496613,15.3334677 C28.1899839,15.3334677 29.0398226,14.9520161 29.6572419,14.3399194 L29.6625645,14.336371 C30.2764355,13.7189516 30.6561129,12.8673387 30.6561129,11.9252419 C30.6561129,10.9849194 30.2746613,10.1315323 29.6607903,9.5141129 M27.2496613,6.81556452 C28.6601452,6.81556452 29.9393387,7.38862903 30.8636935,8.31120968 L30.8636935,8.31475806 C31.7862742,9.2408871 32.3593387,10.5183065 32.3593387,11.9252419 C32.3593387,13.3339516 31.7862742,14.611371 30.8636935,15.5375 L30.8601452,15.5392742 C29.9340161,16.463629 28.6565968,17.0366935 27.2496613,17.0366935 C25.8391774,17.0366935 24.5582097,16.463629 23.635629,15.5392742 C22.7112742,14.6166935 22.1382097,13.3357258 22.1382097,11.9252419 C22.1382097,10.5165323 22.7112742,9.2408871 23.635629,8.31475806 L23.635629,8.31120968 C24.5582097,7.38862903 25.8391774,6.81556452 27.2496613,6.81556452" id="Fill-6" fill="#332F3E"></path>
                <path d="M39.167629,53.655871 C39.167629,54.1242581 38.7879516,54.5057097 38.3195645,54.5057097 C37.8529516,54.5057097 37.4715,54.1242581 37.4715,53.655871 L37.4750484,22.9960323 C37.4750484,22.5276452 37.8547258,22.1479677 38.3213387,22.1479677 C38.7897258,22.1479677 39.1711774,22.5276452 39.1711774,22.9960323 L39.167629,53.655871 Z" id="Fill-8" fill="#332F3E"></path>
                <path d="M17.0196613,43.0662419 C17.0196613,43.534629 16.6382097,43.9143065 16.1698226,43.9143065 C15.7049839,43.9143065 15.3235323,43.534629 15.3235323,43.0662419 L15.3288548,22.9947903 C15.3288548,22.5281774 15.7085323,22.1485 16.1751452,22.1485 C16.6435323,22.1485 17.0249839,22.5281774 17.0249839,22.9947903 L17.0196613,43.0662419 Z" id="Fill-10" fill="#332F3E"></path>
            </g>
        </g>
    </g>
</svg>