<?xml version="1.0" encoding="UTF-8"?>
<svg width="35px" height="64px" viewBox="0 0 35 64" version="1.1" xmlns="http://www.w3.org/2000/svg" xmlns:xlink="http://www.w3.org/1999/xlink">
    <!-- Generator: Sketch 41.2 (35397) - http://www.bohemiancoding.com/sketch -->
    <title>icon-movel</title>
    <desc>Created with Sketch.</desc>
    <defs></defs>
    <g id="Bootstrap-4-Grid-System" stroke="none" stroke-width="1" fill="none" fill-rule="evenodd">
        <g id="Contactos" transform="translate(-731.000000, -664.000000)" fill="#332F3E">
            <g id="icon-movel" transform="translate(731.000000, 664.000000)">
                <path d="M32.9937427,57.4079499 C32.9937427,58.5231425 32.5311696,59.542689 31.7902339,60.2793674 C31.0492982,61.0140107 30.0238596,61.4759609 28.9022222,61.4759609 L6.06011696,61.4759609 C4.95894737,61.4759609 3.95397661,61.0343609 3.21508772,60.3282079 L3.17005848,60.2793674 C2.42912281,59.542689 1.96654971,58.5231425 1.96654971,57.4079499 L1.96654971,6.93734341 C1.96654971,5.82215078 2.42912281,4.80260424 3.17210526,4.0659259 C3.91304094,3.32924756 4.93643275,2.86933235 6.06011696,2.86933235 L28.9022222,2.86933235 C30.0033918,2.86933235 31.0083626,3.31093235 31.7472515,4.01708535 L31.7902339,4.0659259 C32.5311696,4.80056922 32.9937427,5.82215078 32.9937427,6.93734341 L32.9937427,57.4079499 Z M33.1820468,2.68211023 L33.1124561,2.62105954 C32.0194737,1.56895263 30.5335088,0.913675207 28.9022222,0.913675207 L6.06011696,0.913675207 C4.3919883,0.913675207 2.87736842,1.5933729 1.7802924,2.68211023 C0.683216374,3.7749176 -0.000409356724,5.28083465 -0.000409356724,6.93734341 L-0.000409356724,57.4079499 C-0.000409356724,59.0644586 0.683216374,60.5744457 1.7802924,61.663183 L1.84783626,61.7242337 C2.94081871,62.7783757 4.42883041,63.4316181 6.06011696,63.4316181 L28.9022222,63.4316181 C30.5683041,63.4316181 32.0870175,62.7519204 33.1820468,61.663183 C34.277076,60.5744457 34.9607018,59.0644586 34.9607018,57.4079499 L34.9607018,6.93734341 C34.9607018,5.28083465 34.277076,3.77288258 33.1820468,2.68211023 L33.1820468,2.68211023 Z" id="Fill-1"></path>
                <path d="M28.9020175,5.96012535 L28.8754094,5.96012535 L6.05991228,5.96012535 C5.51751462,5.96012535 5.07540936,6.39969032 5.07540936,6.93693641 L5.07540936,6.96339171 L5.07540936,47.3117935 C5.07540936,47.8531097 5.51751462,48.2906396 6.05991228,48.2906396 L6.08652047,48.2906396 L28.9020175,48.2906396 C29.4444152,48.2906396 29.8844737,47.8531097 29.8844737,47.3117935 C29.8844737,46.7745475 29.4444152,46.3349825 28.9020175,46.3349825 L7.0444152,46.3349825 L7.0444152,7.91578249 L27.9195614,7.91578249 L27.9195614,42.2669714 C27.9195614,42.8042175 28.3596199,43.2437825 28.9020175,43.2437825 C29.4444152,43.2437825 29.8844737,42.8042175 29.8844737,42.2669714 L29.8844737,6.93693641 C29.8844737,6.39969032 29.4444152,5.96012535 28.9020175,5.96012535" id="Fill-4"></path>
                <path d="M18.1345029,55.5318621 C17.9687135,55.696699 17.7353801,55.7984501 17.4815789,55.7984501 C17.2421053,55.7984501 17.0251462,55.7089091 16.8614035,55.5644225 L16.8307018,55.5298271 C16.6649123,55.3649902 16.5605263,55.1370676 16.5605263,54.8847248 C16.5605263,54.6323819 16.6649123,54.4003893 16.8307018,54.2355524 C16.9964912,54.0707156 17.2277778,53.9689644 17.4815789,53.9689644 C17.7353801,53.9689644 17.9666667,54.0707156 18.1324561,54.2355524 L18.1345029,54.2335174 C18.2982456,54.3983543 18.4005848,54.6303469 18.4005848,54.8847248 C18.4005848,55.1370676 18.2982456,55.3649902 18.1324561,55.5298271 L18.1345029,55.5318621 Z M19.5201754,52.8558068 L19.5222222,52.8537718 C19.0002924,52.3348409 18.2777778,52.0133073 17.4815789,52.0133073 C16.6833333,52.0133073 15.9608187,52.3348409 15.4388889,52.8537718 C14.9169591,53.3727027 14.595614,54.0910658 14.595614,54.8847248 C14.595614,55.6743137 14.9169591,56.3947119 15.4388889,56.9136428 L15.5105263,56.9787635 C16.0263158,57.4569939 16.7201754,57.7541073 17.4815789,57.7541073 C18.2736842,57.7541073 18.9961988,57.4325736 19.5181287,56.9136428 L19.5201754,56.9116077 L19.5222222,56.9136428 C20.0461988,56.3947119 20.3675439,55.6743137 20.3675439,54.8847248 C20.3675439,54.0931008 20.044152,53.3747377 19.5222222,52.8598769 L19.5201754,52.8558068 Z" id="Fill-6"></path>
                <path d="M28.9020175,53.9062857 L23.8259942,53.9062857 C23.2835965,53.9062857 22.843538,54.3438157 22.843538,54.8830968 C22.843538,55.4223779 23.2835965,55.8619429 23.8259942,55.8619429 L28.9020175,55.8619429 C29.4444152,55.8619429 29.8844737,55.4223779 29.8844737,54.8830968 C29.8844737,54.3438157 29.4444152,53.9062857 28.9020175,53.9062857" id="Fill-8"></path>
                <path d="M11.135731,53.9062857 L6.0597076,53.9062857 C5.51730994,53.9062857 5.07725146,54.3438157 5.07725146,54.8830968 C5.07725146,55.4223779 5.51730994,55.8619429 6.0597076,55.8619429 L11.135731,55.8619429 C11.6781287,55.8619429 12.1202339,55.4223779 12.1202339,54.8830968 C12.1202339,54.3438157 11.6781287,53.9062857 11.135731,53.9062857" id="Fill-10"></path>
            </g>
        </g>
    </g>
</svg>