<?xml version="1.0" encoding="UTF-8"?>
<svg width="55px" height="54px" viewBox="0 0 55 54" version="1.1" xmlns="http://www.w3.org/2000/svg" xmlns:xlink="http://www.w3.org/1999/xlink">
    <!-- Generator: Sketch 41.2 (35397) - http://www.bohemiancoding.com/sketch -->
    <title>icon-email</title>
    <desc>Created with Sketch.</desc>
    <defs>
        <polygon id="path-1" points="37.5537634 0.484276596 0.240698925 0.484276596 0.240698925 36.7425957 37.5537634 36.7425957 37.5537634 0.484276596"></polygon>
    </defs>
    <g id="Bootstrap-4-Grid-System" stroke="none" stroke-width="1" fill="none" fill-rule="evenodd">
        <g id="Contactos" transform="translate(-975.000000, -669.000000)">
            <g id="icon-email" transform="translate(975.000000, 669.000000)">
                <g id="Group-3" transform="translate(8.242608, 0.089847)">
                    <mask id="mask-2" fill="white">
                        <use xlink:href="#path-1"></use>
                    </mask>
                    <g id="Clip-2"></g>
                    <path d="M32.461828,4.60459149 C32.461828,4.14961277 32.8432796,3.78080426 33.3116667,3.78080426 C33.7782796,3.78080426 34.1597312,4.14961277 34.1597312,4.60459149 L34.1597312,26.0334 C34.1597312,26.348783 33.9752151,26.6245277 33.7037634,26.7624 L17.6508602,36.6151021 C17.3616667,36.7943362 17.0015054,36.7788255 16.7336022,36.6047617 L0.63811828,26.7279319 C0.384408602,26.5728255 0.246021505,26.3056979 0.244247312,26.0334 L0.240698925,26.0334 L0.240698925,13.6714213 L0.240698925,1.30944255 C0.240698925,0.85446383 0.622150538,0.483931915 1.09053763,0.483931915 L1.11182796,0.483931915 L36.7056989,0.483931915 C37.1723118,0.483931915 37.5537634,0.85446383 37.5537634,1.30944255 L37.5502151,1.39216596 L37.5537634,19.4344851 C37.5537634,19.8877404 37.1758602,20.2548255 36.7092473,20.2548255 C36.2426344,20.2548255 35.8647312,19.8877404 35.8647312,19.4344851 L35.8611828,2.13150638 L1.93860215,2.13150638 L1.93860215,13.6714213 L1.93860215,25.5835915 L17.2002151,34.9485702 L32.461828,25.5835915 L32.461828,4.60459149 Z" id="Fill-1" fill="#332F3E" mask="url(#mask-2)"></path>
                </g>
                <path d="M16.0328548,13.7574766 C15.5644677,13.7574766 15.1830161,13.3869447 15.1830161,12.931966 C15.1830161,12.4787106 15.5644677,12.1099021 16.0328548,12.1099021 L34.7736613,12.1099021 C35.2420484,12.1099021 35.6217258,12.4787106 35.6217258,12.931966 C35.6217258,13.3869447 35.2420484,13.7574766 34.7736613,13.7574766 L16.0328548,13.7574766 Z" id="Fill-4" fill="#332F3E"></path>
                <path d="M16.0328548,18.7020957 C15.5644677,18.7020957 15.1830161,18.3332872 15.1830161,17.8765851 C15.1830161,17.4233298 15.5644677,17.0545213 16.0328548,17.0545213 L34.7736613,17.0545213 C35.2420484,17.0545213 35.6217258,17.4233298 35.6217258,17.8765851 C35.6217258,18.3332872 35.2420484,18.7020957 34.7736613,18.7020957 L16.0328548,18.7020957 Z" id="Fill-6" fill="#332F3E"></path>
                <path d="M16.0328548,23.6468872 C15.5644677,23.6468872 15.1830161,23.2780787 15.1830161,22.8231 C15.1830161,22.3698447 15.5644677,21.9993128 16.0328548,21.9993128 L28.0441452,21.9993128 C28.5125323,21.9993128 28.8922097,22.3698447 28.8922097,22.8231 C28.8922097,23.2780787 28.5125323,23.6468872 28.0441452,23.6468872 L16.0328548,23.6468872 Z" id="Fill-8" fill="#332F3E"></path>
                <path d="M16.034629,8.81113404 C15.5662419,8.81113404 15.1847903,8.44232553 15.1847903,7.98734681 C15.1847903,7.53409149 15.5662419,7.16355957 16.034629,7.16355957 L34.7736613,7.16355957 C35.2420484,7.16355957 35.6217258,7.53409149 35.6217258,7.98734681 C35.6217258,8.44232553 35.2420484,8.81113404 34.7736613,8.81113404 L16.034629,8.81113404 Z" id="Fill-10" fill="#332F3E"></path>
                <path d="M39.8624032,46.7158596 C39.3940161,46.7158596 39.0143387,46.3453277 39.0143387,45.8903489 C39.0143387,45.4370936 39.3940161,45.0665617 39.8624032,45.0665617 L46.6469194,45.0665617 C47.1153065,45.0665617 47.4949839,45.4370936 47.4949839,45.8903489 C47.4949839,46.3453277 47.1153065,46.7158596 46.6469194,46.7158596 L39.8624032,46.7158596 Z" id="Fill-12" fill="#332F3E"></path>
                <path d="M6.32606452,22.0698 C6.79445161,22.0698 7.17412903,22.4403319 7.17412903,22.8953106 C7.17412903,23.348566 6.79445161,23.7173745 6.32606452,23.7173745 L5.2313871,23.7173745 C4.25912903,23.7173745 3.37558065,24.1068638 2.73509677,24.7272894 C2.0963871,25.3494383 1.69719355,26.2076936 1.69719355,27.1486723 L1.69719355,48.4344383 C1.69719355,49.3771404 2.0946129,50.2371191 2.73332258,50.8592681 L2.73509677,50.8575447 C3.37558065,51.4779702 4.25912903,51.8674596 5.2313871,51.8674596 L49.0504194,51.8674596 C50.0209032,51.8674596 50.9044516,51.4779702 51.5449355,50.8575447 C52.1854194,50.2371191 52.5846129,49.3771404 52.5846129,48.4344383 L52.5846129,27.1486723 C52.5846129,26.2076936 52.1854194,25.3494383 51.5449355,24.7272894 C50.9044516,24.1068638 50.0209032,23.7173745 49.0504194,23.7173745 L47.9557419,23.7173745 C47.4873548,23.7173745 47.1076774,23.348566 47.1076774,22.8953106 C47.1076774,22.4403319 47.4873548,22.0698 47.9557419,22.0698 L49.0504194,22.0698 C50.4892903,22.0698 51.7986452,22.6419702 52.7460645,23.5622681 C53.6917097,24.4808426 54.2807419,25.7527149 54.2807419,27.1486723 L54.2807419,48.4344383 C54.2807419,49.8303957 53.6917097,51.1039915 52.7460645,52.0242894 C51.7986452,52.9428638 50.4892903,53.515034 49.0504194,53.515034 L5.2313871,53.515034 C3.79251613,53.515034 2.4813871,52.9428638 1.53574194,52.0242894 L1.53751613,52.0208426 L1.53574194,52.0208426 C0.588322581,51.0988213 0.00106451613,49.8286723 0.00106451613,48.4344383 L0.00106451613,27.1486723 C0.00106451613,25.7527149 0.588322581,24.4808426 1.53574194,23.5622681 C2.4813871,22.6419702 3.79251613,22.0698 5.2313871,22.0698 L6.32606452,22.0698 Z" id="Fill-14" fill="#332F3E"></path>
            </g>
        </g>
    </g>
</svg>