<?xml version="1.0" encoding="UTF-8"?>
<svg width="77px" height="75px" viewBox="0 0 77 75" version="1.1" xmlns="http://www.w3.org/2000/svg" xmlns:xlink="http://www.w3.org/1999/xlink">
    <!-- Generator: Sketch 41.2 (35397) - http://www.bohemiancoding.com/sketch -->
    <title>illustrator</title>
    <desc>Created with Sketch.</desc>
    <defs></defs>
    <g id="Bootstrap-4-Grid-System" stroke="none" stroke-width="1" fill="none" fill-rule="evenodd">
        <g id="Sobre-mim" transform="translate(-263.000000, -1156.000000)">
            <g id="illustrator" transform="translate(263.000000, 1156.000000)">
                <polygon id="Fill-2" fill="#05FFB0" points="73.5543167 71.1878909 73.5543167 15.1469866 3.66131667 12.8064182 3.66131667 71.1878909"></polygon>
                <path d="M3.50843939,71.1878909 L73.4014394,71.1878909 L73.4014394,3.26603935 L3.50843939,3.26603935 L3.50843939,71.1878909 Z M0.331484848,74.3618563 L76.5783939,74.3618563 L76.5783939,0.0903937059 L0.331484848,0.0903937059 L0.331484848,74.3618563 Z M50.2730758,26.5625086 C50.2730758,26.308793 50.3672576,26.181095 50.6531667,26.181095 L55.6397576,26.181095 C55.8953939,26.181095 56.0232121,26.2768685 56.0232121,26.5625086 L56.0232121,51.6047428 C56.0232121,51.8584584 55.959303,51.9861563 55.6397576,51.9861563 L50.7170758,51.9861563 C50.3992121,51.9861563 50.3033485,51.8282141 50.3033485,51.5728183 L50.3033485,26.5625086 L50.2730758,26.5625086 Z M49.9232576,19.3576575 C49.9232576,17.3262524 51.352803,16.1198431 53.1641212,16.1198431 C55.1015758,16.1198431 56.403303,17.4220259 56.403303,19.3576575 C56.403303,21.4529115 55.0376667,22.5954719 53.1002121,22.5954719 C51.2569394,22.5954719 49.9232576,21.4529115 49.9232576,19.3576575 L49.9232576,19.3576575 Z M35.6261212,37.005174 C34.7381212,33.4817195 32.6408939,25.8013617 31.8453939,22.0880407 L31.7831667,22.0880407 C31.1154848,25.8013617 29.4319848,32.0854436 28.098303,37.005174 L35.6261212,37.005174 Z M26.7948939,42.1466955 L24.2856212,51.6685917 C24.2217121,51.9223073 24.1258485,51.9861563 23.8079848,51.9861563 L19.1392576,51.9861563 C18.8213939,51.9861563 18.7574848,51.8903828 18.8213939,51.5089693 L27.8426667,19.9608621 C28.0024394,19.389582 28.0966212,18.8821508 28.1605303,17.3262524 C28.1605303,17.1044613 28.2563939,17.0086879 28.4144848,17.0086879 L35.0862576,17.0086879 C35.3082576,17.0086879 35.4041212,17.0725368 35.4680303,17.3262524 L45.5707121,51.5728183 C45.6346212,51.8265339 45.5707121,51.9861563 45.3167576,51.9861563 L40.0425758,51.9861563 C39.7886212,51.9861563 39.6288485,51.9223073 39.5666212,51.7005162 L36.9614848,42.1466955 L26.7948939,42.1466955 Z" id="Fill-9" fill="#332E3D"></path>
            </g>
        </g>
    </g>
</svg>