<?xml version="1.0" encoding="UTF-8"?>
<svg width="77px" height="75px" viewBox="0 0 77 75" version="1.1" xmlns="http://www.w3.org/2000/svg" xmlns:xlink="http://www.w3.org/1999/xlink">
    <!-- Generator: Sketch 41.2 (35397) - http://www.bohemiancoding.com/sketch -->
    <title>indesign</title>
    <desc>Created with Sketch.</desc>
    <defs></defs>
    <g id="Bootstrap-4-Grid-System" stroke="none" stroke-width="1" fill="none" fill-rule="evenodd">
        <g id="Sobre-mim" transform="translate(-377.000000, -1156.000000)">
            <g id="indesign" transform="translate(377.000000, 1156.000000)">
                <polygon id="Fill-3" fill="#05FFB0" points="73.2819439 71.1878909 73.2819439 21.8376855 3.38894394 19.4971171 3.38894394 71.1878909"></polygon>
                <path d="M3.39012121,71.1878909 L73.284803,71.1878909 L73.284803,3.26603935 L3.39012121,3.26603935 L3.39012121,71.1878909 Z M0.213166667,74.3618563 L76.4600758,74.3618563 L76.4600758,0.0903937059 L0.213166667,0.0903937059 L0.213166667,74.3618563 Z M48.439303,30.9428833 C47.9616667,30.7210921 47.3259394,30.6253187 46.5640758,30.6253187 C42.4654848,30.6253187 39.6063939,33.7673596 39.6063939,39.0046546 C39.6063939,44.9711719 42.5293939,47.3839904 46.182303,47.3839904 C46.977803,47.3839904 47.8035758,47.288217 48.439303,47.0025769 L48.439303,30.9428833 Z M46.7541212,25.7694373 C47.421803,25.7694373 47.8035758,25.7694373 48.4376212,25.8332862 L48.4376212,17.3901014 C48.4376212,17.1683103 48.5973939,17.0725368 48.7554848,17.0725368 L53.9018485,17.0725368 C54.1574848,17.0725368 54.2197121,17.1683103 54.2197121,17.3262524 L54.2197121,47.0025769 C54.2197121,47.8914217 54.2197121,49.0020575 54.3794848,50.2084668 C54.3794848,50.4302579 54.3155758,50.4621824 54.0935758,50.5898803 C51.3606212,51.8903828 48.4695758,52.461663 45.7702576,52.461663 C38.7486667,52.461663 33.7284394,48.1132128 33.7284394,39.2583702 C33.6981667,31.6721056 38.7167121,25.7694373 46.7541212,25.7694373 L46.7541212,25.7694373 Z M28.1061212,51.5728183 C28.1061212,51.8903828 28.0422121,51.9861563 27.6923939,51.9861563 L22.7999848,51.9861563 C22.4821212,51.9861563 22.3879394,51.8282141 22.3879394,51.5728183 L22.3879394,17.4841946 C22.3879394,17.1683103 22.5460303,17.0725368 22.7999848,17.0725368 L27.7243485,17.0725368 C27.978303,17.0725368 28.1061212,17.1683103 28.1061212,17.4539503 L28.1061212,51.5728183 Z" id="Fill-6" fill="#332E3D"></path>
            </g>
        </g>
    </g>
</svg>