<?xml version="1.0" encoding="UTF-8"?>
<svg width="77px" height="75px" viewBox="0 0 77 75" version="1.1" xmlns="http://www.w3.org/2000/svg" xmlns:xlink="http://www.w3.org/1999/xlink">
    <!-- Generator: Sketch 41.2 (35397) - http://www.bohemiancoding.com/sketch -->
    <title>mac</title>
    <desc>Created with Sketch.</desc>
    <defs></defs>
    <g id="Bootstrap-4-Grid-System" stroke="none" stroke-width="1" fill="none" fill-rule="evenodd">
        <g id="Sobre-mim" transform="translate(-602.000000, -1291.000000)">
            <g id="mac" transform="translate(602.000000, 1291.000000)">
                <polygon id="Fill-13" fill="#05FFB0" points="3.44469697 70.8311776 73.337697 70.8311776 73.337697 3.03030303 3.44469697 3.03030303"></polygon>
                <path d="M3.59134848,71.0941367 L73.4860303,71.0941367 L73.4860303,3.17060493 L3.59134848,3.17060493 L3.59134848,71.0941367 Z M0.414393939,74.2681021 L76.661303,74.2681021 L76.661303,0 L0.414393939,0 L0.414393939,74.2681021 Z" id="Fill-15" fill="#332E3D"></path>
                <path d="M41.3868485,16.3112547 C44.3300303,12.4349508 48.4235758,12.4181484 48.4235758,12.4181484 C48.4235758,12.4181484 49.0323939,16.0625798 46.1077121,19.5709122 C42.9845758,23.3195182 39.4359394,22.7079124 39.4359394,22.7079124 C39.4359394,22.7079124 38.7682576,19.7574183 41.3868485,16.3112547" id="Fill-20" fill="#332E3D"></path>
                <path d="M38.6887273,25.5649804 C40.2006818,25.5649804 43.0143636,23.4848485 46.6723182,23.4848485 C52.9707273,23.4848485 55.4480455,27.9626769 55.4480455,27.9626769 C55.4480455,27.9626769 50.6027273,30.4359839 50.6027273,36.4428269 C50.6027273,43.2175376 56.6387727,45.5530653 56.6387727,45.5530653 C56.6387727,45.5530653 52.4190909,57.4188905 46.7177273,57.4188905 C44.1025,57.4188905 42.0658182,55.6546429 39.3076364,55.6546429 C36.4973182,55.6546429 33.7088636,57.4844197 31.8908182,57.4844197 C26.6872727,57.4844197 20.1113636,46.2285201 20.1113636,37.1804504 C20.1113636,28.276881 25.6781818,23.6091859 30.8968636,23.6091859 C34.2907727,23.6091859 36.9245,25.5649804 38.6887273,25.5649804" id="Fill-21" fill="#332E3D"></path>
            </g>
        </g>
    </g>
</svg>