<?xml version="1.0" encoding="UTF-8"?>
<svg width="77px" height="75px" viewBox="0 0 77 75" version="1.1" xmlns="http://www.w3.org/2000/svg" xmlns:xlink="http://www.w3.org/1999/xlink">
    <!-- Generator: Sketch 41.2 (35397) - http://www.bohemiancoding.com/sketch -->
    <title>photoshop</title>
    <desc>Created with Sketch.</desc>
    <defs></defs>
    <g id="Bootstrap-4-Grid-System" stroke="none" stroke-width="1" fill="none" fill-rule="evenodd">
        <g id="Sobre-mim" transform="translate(-150.000000, -1156.000000)">
            <g id="photoshop" transform="translate(150.000000, 1156.000000)">
                <polygon id="Fill-1" fill="#05FFB0" points="73.0689455 71.1878909 73.0689455 8.4562877 3.17594545 6.11571924 3.17594545 71.1878909"></polygon>
                <path d="M3.17695455,71.1878909 L73.0716364,71.1878909 L73.0716364,3.26603935 L3.17695455,3.26603935 L3.17695455,71.1878909 Z M0,74.3618563 L76.2469091,74.3618563 L76.2469091,0.0903937059 L0,0.0903937059 L0,74.3618563 Z M51.4030909,30.5614697 C48.8921364,30.5614697 48.0344091,31.831728 48.0344091,32.8785149 C48.0344091,34.0210752 48.6062273,34.8141465 51.9749091,36.5599115 C56.9615,38.9727301 58.5188636,41.2897752 58.5188636,44.6855318 C58.5188636,49.7648846 54.6422727,52.4935875 49.4000455,52.4935875 C46.6368182,52.4935875 44.2536818,51.9223073 42.8880455,51.129236 C42.6660455,51.0334626 42.6340909,50.8755204 42.6340909,50.6218048 L42.6340909,45.95579 C42.6340909,45.6382255 42.7905,45.542452 43.0158636,45.7020744 C45.0172273,47.0025769 47.3045,47.5738571 49.4000455,47.5738571 C51.911,47.5738571 52.9587727,46.5270702 52.9587727,45.0988698 C52.9587727,43.9563094 52.2288636,42.9397668 49.0199545,41.2897752 C44.5076364,39.1323525 42.6340909,36.941325 42.6340909,33.2918529 C42.6340909,29.1971183 45.843,25.8013617 51.4030909,25.8013617 C54.1343636,25.8013617 56.0398636,26.2130195 57.0893182,26.6902065 C57.3432727,26.8481486 57.4071818,27.1018642 57.4071818,27.3236554 L57.4071818,31.6721056 C57.4071818,31.9258212 57.2474091,32.0854436 56.9295455,31.9896702 C55.5319545,31.1008254 53.4666818,30.5614697 51.4030909,30.5614697 L51.4030909,30.5614697 Z M24.0802727,34.3386398 C24.8118636,34.4024887 25.3836818,34.4024887 26.6534545,34.4024887 C30.3702727,34.4024887 33.8650909,33.100306 33.8650909,28.0545579 C33.8650909,24.0236723 31.3558182,21.9922672 27.1310909,21.9922672 C25.8596364,21.9922672 24.6520909,22.0561162 24.0802727,22.0880407 L24.0802727,34.3386398 Z M18.426,17.4841946 C18.426,17.2624035 18.87,17.1044613 19.1239545,17.1044613 C21.1572727,17.0086879 24.1761364,16.9448389 27.3211364,16.9448389 C36.1204091,16.9448389 39.553,21.7704761 39.553,27.92686 C39.553,35.9886313 33.707,39.4482368 26.5273182,39.4482368 C25.3197727,39.4482368 24.9060455,39.3860681 24.0483182,39.3860681 L24.0483182,51.5728183 C24.0483182,51.8265339 23.9541364,51.9542318 23.6682273,51.9542318 L18.8060909,51.9542318 C18.5521364,51.9542318 18.426,51.8584584 18.426,51.5728183 L18.426,17.4841946 Z" id="Fill-11" fill="#332E3D"></path>
            </g>
        </g>
    </g>
</svg>