<?xml version="1.0" encoding="UTF-8"?>
<svg width="77px" height="75px" viewBox="0 0 77 75" version="1.1" xmlns="http://www.w3.org/2000/svg" xmlns:xlink="http://www.w3.org/1999/xlink">
    <!-- Generator: Sketch 41.2 (35397) - http://www.bohemiancoding.com/sketch -->
    <title>premiere</title>
    <desc>Created with Sketch.</desc>
    <defs></defs>
    <g id="Bootstrap-4-Grid-System" stroke="none" stroke-width="1" fill="none" fill-rule="evenodd">
        <g id="Sobre-mim" transform="translate(-602.000000, -1156.000000)">
            <g id="premiere" transform="translate(602.000000, 1156.000000)">
                <polygon id="Fill-5" fill="#05FFB0" points="73.4843485 71.1878909 73.4843485 31.205 3.59134848 28.8644316 3.59134848 71.1878909"></polygon>
                <path d="M3.59134848,71.1878909 L73.4843485,71.1878909 L73.4843485,3.26603935 L3.59134848,3.26603935 L3.59134848,71.1878909 Z M0.414393939,74.3618563 L76.661303,74.3618563 L76.661303,0.0903937059 L0.414393939,0.0903937059 L0.414393939,74.3618563 Z M46.1632121,31.4503145 C46.1632121,31.0689009 46.1632121,30.149812 46.0034394,28.3721225 C46.0034394,28.1184069 46.0353939,28.0545579 46.2573939,27.9587845 C48.1965303,27.1657132 52.7391212,25.7694373 57.8854848,25.7694373 C58.1394394,25.7694373 58.2672576,25.8332862 58.2672576,26.0870018 L58.2672576,30.6891677 C58.2672576,30.9428833 58.1713939,31.0067322 57.9174394,31.0067322 C55.9160758,30.9109588 53.0250303,31.1646744 51.9133485,31.6401811 L51.9133485,51.6366672 C51.9133485,51.8903828 51.8174848,52.0180808 51.5315758,52.0180808 L46.543303,52.0180808 C46.2893485,52.0180808 46.1632121,51.9223073 46.1632121,51.6366672 L46.1632121,31.4503145 Z M25.8300303,34.3386398 C26.5616212,34.4024887 27.1334394,34.4024887 28.4032121,34.4024887 C32.1200303,34.4024887 35.6148485,33.100306 35.6148485,28.0545579 C35.6148485,24.0236723 33.1375303,21.9922672 28.8808485,21.9922672 C27.6093939,21.9922672 26.4018485,22.0561162 25.8300303,22.0880407 L25.8300303,34.3386398 Z M20.2077121,17.4841946 C20.2077121,17.2624035 20.2699394,17.1044613 20.5255758,17.1044613 C22.5572121,17.0086879 25.5441212,16.9448389 28.6891212,16.9448389 C37.4900758,16.9448389 41.3330303,21.7704761 41.3330303,27.9587845 C41.3330303,36.0205558 35.4887121,39.4801613 28.3090303,39.4801613 C27.1014848,39.4801613 26.6877576,39.4163123 25.8300303,39.4163123 L25.8300303,51.6047428 C25.8300303,51.8584584 25.7358485,51.9861563 25.4465758,51.9861563 L20.5558485,51.9861563 C20.3018939,51.9861563 20.1757576,51.8903828 20.1757576,51.6047428 L20.1757576,17.4841946 L20.2077121,17.4841946 Z" id="Fill-8" fill="#332E3D"></path>
            </g>
        </g>
    </g>
</svg>