<?xml version="1.0" encoding="UTF-8"?>
<svg width="77px" height="75px" viewBox="0 0 77 75" version="1.1" xmlns="http://www.w3.org/2000/svg" xmlns:xlink="http://www.w3.org/1999/xlink">
    <!-- Generator: Sketch 41.2 (35397) - http://www.bohemiancoding.com/sketch -->
    <title>windows</title>
    <desc>Created with Sketch.</desc>
    <defs></defs>
    <g id="Bootstrap-4-Grid-System" stroke="none" stroke-width="1" fill="none" fill-rule="evenodd">
        <g id="Sobre-mim" transform="translate(-489.000000, -1291.000000)">
            <g id="windows" transform="translate(489.000000, 1291.000000)">
                <polygon id="Fill-12" fill="#05FFB0" points="3.54321212 70.8311776 73.4378939 70.8311776 73.4378939 3.03030303 3.54321212 3.03030303"></polygon>
                <path d="M3.68986364,71.0941367 L73.5845455,71.0941367 L73.5845455,3.17060493 L3.68986364,3.17060493 L3.68986364,71.0941367 Z M0.512909091,74.2681021 L76.7598182,74.2681021 L76.7598182,0 L0.512909091,0 L0.512909091,74.2681021 Z" id="Fill-14" fill="#332E3D"></path>
                <path d="M36.1227538,19.7986262 C43.3074811,18.699752 50.5090265,17.6647267 57.7088902,16.6666667 C57.7122538,22.9709113 57.7088902,29.2701153 57.7122538,35.5760402 C50.5174356,35.602924 43.3209356,35.7121393 36.1227538,35.7339824 C36.1177083,30.4193966 36.1177083,25.1098515 36.1227538,19.7986262" id="Fill-16" fill="#332E3D"></path>
                <path d="M17.9371515,21.9300031 C23.3475606,21.0966061 28.783197,20.375785 34.2171515,19.6969697 C34.2205152,24.9241832 34.2205152,30.1497165 34.2255606,35.3769301 C28.7966515,35.3718894 23.3660606,35.4542209 17.9371515,35.440779 L17.9371515,21.9300031 Z" id="Fill-17" fill="#332E3D"></path>
                <path d="M17.9371515,37.1237883 C23.362697,37.1053057 28.7865606,37.192678 34.2121061,37.1825966 C34.2121061,42.4249322 34.2255606,47.6672679 34.2171515,52.9096036 C28.7966515,52.1064508 23.3660606,51.4041123 17.9371515,50.6715295 L17.9371515,37.1237883 Z" id="Fill-18" fill="#332E3D"></path>
                <path d="M36.1189697,37.8787879 L57.7370606,37.8787879 C57.7454697,44.16455 57.7370606,50.4486318 57.7370606,56.7411148 C50.5506515,55.6657639 43.3507879,54.6660236 36.1526061,53.6914869 C36.144197,48.4205872 36.1273788,43.153048 36.1189697,37.8787879" id="Fill-19" fill="#332E3D"></path>
            </g>
        </g>
    </g>
</svg>