<?xml version="1.0" encoding="UTF-8"?>
<svg width="77px" height="75px" viewBox="0 0 77 75" version="1.1" xmlns="http://www.w3.org/2000/svg" xmlns:xlink="http://www.w3.org/1999/xlink">
    <!-- Generator: Sketch 41.2 (35397) - http://www.bohemiancoding.com/sketch -->
    <title>wordpress</title>
    <desc>Created with Sketch.</desc>
    <defs></defs>
    <g id="Bootstrap-4-Grid-System" stroke="none" stroke-width="1" fill="none" fill-rule="evenodd">
        <g id="Sobre-mim" transform="translate(-151.000000, -1290.000000)">
            <g id="wordpress" transform="translate(151.000000, 1290.000000)">
                <polygon id="Fill-22" fill="#05FFB0" points="73.0750833 71.436892 73.0750833 12.497581 3.18040152 10.1553323 3.18040152 71.436892"></polygon>
                <path d="M3.18124242,71.6076039 L73.0742424,71.6076039 L73.0742424,3.68407219 L3.18124242,3.68407219 L3.18124242,71.6076039 Z M0.00428787879,74.7815693 L76.251197,74.7815693 L76.251197,0.513467253 L0.00428787879,0.513467253 L0.00428787879,74.7815693 Z" id="Fill-25" fill="#332E3D"></path>
                <path d="M28.0898106,43.7113212 C28.0898106,50.9346549 32.2909924,57.1767308 38.3825379,60.1322656 L29.6707197,36.2863593 C28.6582652,38.5563578 28.0898106,41.0683103 28.0898106,43.7113212 L28.0898106,43.7113212 Z M58.6820833,42.790552 C58.6820833,40.5356756 57.871447,38.9747365 57.1751742,37.7582458 C56.2501742,36.256115 55.3840379,34.9841766 55.3840379,33.4803655 C55.3840379,31.80181 56.6554924,30.2408709 58.4499924,30.2408709 C58.5324015,30.2408709 58.6080833,30.2509523 58.685447,30.255993 C55.4361742,27.2836559 51.1088561,25.467321 46.3526742,25.467321 C39.9718561,25.467321 34.3613106,28.7387401 31.0935379,33.690395 C31.5224015,33.7055171 31.9260379,33.7139183 32.2691288,33.7139183 C34.1796742,33.7139183 37.1363106,33.4803655 37.1363106,33.4803655 C38.1201742,33.4249177 38.2362197,34.86656 37.2540379,34.9841766 C37.2540379,34.9841766 36.263447,35.1001128 35.1635379,35.1572408 L41.813447,54.9235347 L45.8111288,42.946814 L42.9671742,35.1572408 C41.9816288,35.0984326 41.0499015,34.9841766 41.0499015,34.9841766 C40.0660379,34.9253683 40.1820833,33.4215573 41.165947,33.4803655 C41.165947,33.4803655 44.181447,33.7122381 45.975947,33.7122381 C47.8864924,33.7122381 50.8431288,33.4803655 50.8431288,33.4803655 C51.8286742,33.4215573 51.9464015,34.86656 50.9625379,34.9841766 C50.9625379,34.9841766 49.9685833,35.0984326 48.8703561,35.1572408 L55.4698106,54.7706332 L57.2912197,48.6898599 C58.0816742,46.167826 58.6820833,44.3548515 58.6820833,42.790552 L58.6820833,42.790552 Z M46.6739015,45.3075452 L41.1945379,61.2143374 C42.830947,61.6948849 44.5598561,61.9586819 46.3526742,61.9586819 C48.4801742,61.9586819 50.5185379,61.5923905 52.4173106,60.9236567 C52.3702197,60.8463658 52.3248106,60.762354 52.2894924,60.6749818 L46.6739015,45.3075452 Z M62.3804015,34.9572928 C62.459447,35.5403346 62.5014924,36.1637021 62.5014924,36.8341162 C62.5014924,38.6874162 62.1550379,40.7658679 61.1123106,43.3702334 L55.5337197,59.4853748 C60.9643106,56.3214908 64.6155379,50.444026 64.6155379,43.7113212 C64.6155379,40.5390361 63.8049015,37.5582978 62.3804015,34.9572928 L62.3804015,34.9572928 Z M46.3526742,22.4445769 C34.6152652,22.4445769 25.0642197,31.9849557 25.0642197,43.7113212 C25.0642197,55.4410473 34.6152652,64.9814261 46.3526742,64.9814261 C58.0917652,64.9814261 67.6444924,55.4410473 67.6444924,43.7113212 C67.6444924,31.9849557 58.0917652,22.4445769 46.3526742,22.4445769 L46.3526742,22.4445769 Z M46.3526742,64.0068893 C35.153447,64.0068893 26.0396742,54.9016916 26.0396742,43.7113212 C26.0396742,32.5226311 35.1517652,23.4191136 46.3526742,23.4191136 C57.5552652,23.4191136 66.6656742,32.5226311 66.6656742,43.7113212 C66.6656742,54.9016916 57.5552652,64.0068893 46.3526742,64.0068893 L46.3526742,64.0068893 Z" id="Fill-27" fill="#332E3D"></path>
                <path d="M34.0089697,10.310082 L13.1073333,10.310082 C11.7837424,10.310082 10.7141061,11.3921539 10.724197,12.7027378 L10.724197,20.6720961 C10.724197,21.9944417 11.797197,23.0647519 13.1174242,23.0647519 L23.0182879,23.0647519 L27.5423788,25.5834253 L26.5131061,23.0647519 L34.0089697,23.0647519 C35.3308788,23.0647519 36.4038788,21.9944417 36.4038788,20.6720961 L36.4038788,12.7027378 C36.4038788,11.3820725 35.3308788,10.310082 34.0089697,10.310082 M21.361697,20.77123 C21.3818788,21.0299864 21.343197,21.2618589 21.2372424,21.4601267 C21.1111061,21.6869585 20.9244242,21.8146565 20.6839242,21.8331391 C20.4114697,21.8549821 20.1306061,21.7289644 19.8598333,21.4483651 C18.8894242,20.4570259 18.1174697,18.9767382 17.5540606,17.0058216 C16.8746061,18.3399289 16.3734242,19.3413494 16.0488333,20.008403 C15.4332879,21.1879285 14.9119242,21.7911332 14.4746515,21.8247379 C14.1921061,21.8449007 13.9499242,21.6063072 13.7413788,21.105597 C13.2116061,19.737885 12.6347424,17.0982346 12.0208788,13.1883259 C11.9771515,12.9194882 12.0393788,12.6775342 12.185697,12.4910281 C12.3320152,12.2927602 12.5523333,12.1869054 12.8432879,12.1667426 C13.3764242,12.1247367 13.6791515,12.3750918 13.7514697,12.9194882 C14.0760606,15.098754 14.4309242,16.9419727 14.8059697,18.4558651 L17.0932424,14.1074149 C17.3017879,13.709199 17.5641515,13.5008498 17.8752879,13.4823672 C18.3361061,13.4487625 18.6186515,13.7411235 18.7313333,14.3560898 C18.9920152,15.7439646 19.3283788,16.9234901 19.7252879,17.9232304 C19.9960606,15.2734985 20.4535152,13.3647507 21.1010152,12.1869054 C21.2574242,11.8945444 21.4895152,11.7483639 21.7888788,11.7298813 C22.0293788,11.7080382 22.2513788,11.7802883 22.4464697,11.9382305 C22.6449242,12.0944924 22.7508788,12.2927602 22.7710606,12.5313537 C22.7811515,12.7212204 22.7508788,12.8758021 22.6684697,13.032064 C22.2614697,13.7831294 21.9251061,15.0449865 21.6543333,16.7957922 C21.3936515,18.4961908 21.2994697,19.8202166 21.361697,20.77123 M27.7711061,19.1330001 C27.1471515,20.1747463 26.3314697,20.6989799 25.3173333,20.6989799 C25.1424242,20.6989799 24.9523788,20.6754566 24.7539242,20.6351309 C24.0156061,20.478869 23.4622879,20.0823334 23.0855606,19.4253612 C22.7508788,18.8507205 22.582697,18.1651843 22.582697,17.3603514 C22.582697,16.2866807 22.8551515,15.3071033 23.396697,14.4182585 C24.0341061,13.3765123 24.8497879,12.8556392 25.8504697,12.8556392 C26.0287424,12.8556392 26.2154242,12.8758021 26.4138788,12.9194882 C27.1471515,13.0757501 27.7105606,13.4722858 28.0856061,14.1275777 C28.4202879,14.6904567 28.5851061,15.369272 28.5851061,16.1808259 C28.5851061,17.257857 28.3143333,18.2374345 27.7711061,19.1330001 M34.3066515,19.1330001 C33.6810152,20.1747463 32.8653333,20.6989799 31.8545606,20.6989799 C31.6746061,20.6989799 31.4862424,20.6754566 31.2911515,20.6351309 C30.5477879,20.478869 29.9944697,20.0823334 29.6211061,19.4253612 C29.2847424,18.8507205 29.1199242,18.1651843 29.1199242,17.3603514 C29.1199242,16.2866807 29.390697,15.3071033 29.9322424,14.4182585 C30.5679697,13.3765123 31.3819697,12.8556392 32.3843333,12.8556392 C32.5642879,12.8556392 32.7509697,12.8758021 32.9477424,12.9194882 C33.6911061,13.0757501 34.2444242,13.4722858 34.6177879,14.1275777 C34.9541515,14.6904567 35.1324242,15.369272 35.1189697,16.1808259 C35.1189697,17.257857 34.848197,18.2374345 34.3066515,19.1330001" id="Fill-28" fill="#332E3D"></path>
                <path d="M26.0285742,14.6173665 C25.6535288,14.5451163 25.2868924,14.7534656 24.9421197,15.2642572 C24.6612561,15.6607929 24.4829833,16.0774914 24.3904833,16.5042713 C24.338347,16.7462252 24.3164833,17.0049815 24.3164833,17.2670983 C24.3164833,17.5695407 24.3787106,17.892146 24.504847,18.2164315 C24.6612561,18.6213683 24.8698015,18.8431595 25.1203924,18.8935665 C25.3810742,18.9456539 25.6636197,18.8313978 25.966347,18.5591996 C26.3514833,18.2164315 26.613847,17.7039596 26.7601652,17.0150629 C26.8123015,16.7764695 26.8425742,16.5160329 26.8324833,16.2438347 C26.8324833,15.9413923 26.7702561,15.618787 26.6441197,15.2945015 C26.4860288,14.8878844 26.2791652,14.6694538 26.0285742,14.6173665" id="Fill-29" fill="#332E3D"></path>
                <path d="M32.5735379,14.6173665 C32.1968106,14.5451163 31.8318561,14.7534656 31.4870833,15.2642572 C31.2062197,15.6607929 31.027947,16.0774914 30.935447,16.5042713 C30.8833106,16.7462252 30.861447,17.0049815 30.861447,17.2670983 C30.861447,17.5695407 30.9236742,17.892146 31.0498106,18.2164315 C31.2062197,18.6213683 31.4147652,18.8431595 31.6653561,18.8935665 C31.9260379,18.9456539 32.2085833,18.8313978 32.5113106,18.5591996 C32.896447,18.2164315 33.1588106,17.7039596 33.303447,17.0150629 C33.3572652,16.7764695 33.377447,16.5160329 33.377447,16.2438347 C33.377447,15.9413923 33.3152197,15.618787 33.1890833,15.2945015 C33.0326742,14.8878844 32.8241288,14.6694538 32.5735379,14.6173665" id="Fill-30" fill="#332E3D"></path>
            </g>
        </g>
    </g>
</svg>